<?xml version="1.0" encoding="UTF-8" standalone="no"?>
<svg
   xmlns:dc="http://purl.org/dc/elements/1.1/"
   xmlns:cc="http://creativecommons.org/ns#"
   xmlns:rdf="http://www.w3.org/1999/02/22-rdf-syntax-ns#"
   xmlns:svg="http://www.w3.org/2000/svg"
   xmlns="http://www.w3.org/2000/svg"
   width="28.380056mm"
   height="26.259256mm"
   viewBox="0 0 28.380056 26.259256"
   version="1.1"
   id="svg8">
  <defs
     id="defs2" />
  <metadata
     id="metadata5">
    <rdf:RDF>
      <cc:Work
         rdf:about="">
        <dc:format>image/svg+xml</dc:format>
        <dc:type
           rdf:resource="http://purl.org/dc/dcmitype/StillImage" />
        <dc:title></dc:title>
      </cc:Work>
    </rdf:RDF>
  </metadata>
  <g
     id="layer1"
     transform="translate(-56.869495,-110.09061)">
    <g
       id="surface92875"
       transform="matrix(0.35277776,0,0,0.35277776,-6.7210808,-5.589807)">
      <path
         style="fill:none;stroke:#000000;stroke-width:2.26772;stroke-linecap:butt;stroke-linejoin:miter;stroke-miterlimit:10;stroke-opacity:1"
         d="m 259.57031,365.12891 c 0,-19.92579 -17.5039,-36.08204 -39.08984,-36.08204 -21.58985,0 -39.08985,16.15625 -39.08985,36.08204 0,19.92968 17.5,36.08593 39.08985,36.08593 21.58594,0 39.08984,-16.15625 39.08984,-36.08593"
         id="path10" />
      <path
         style="fill:none;stroke:#000000;stroke-width:2.26772;stroke-linecap:butt;stroke-linejoin:miter;stroke-miterlimit:10;stroke-opacity:1"
         d="m 255.11719,377.00781 c 0,-10.95703 -10.15235,-19.84375 -22.67578,-19.84375 -12.52344,0 -22.67579,8.88672 -22.67579,19.84375 0,10.95703 10.15235,19.84375 22.67579,19.84375 12.52343,0 22.67578,-8.88672 22.67578,-19.84375"
         id="path12" />
      <path
         style="fill:none;stroke:#000000;stroke-width:2.26772;stroke-linecap:butt;stroke-linejoin:miter;stroke-miterlimit:10;stroke-opacity:1"
         d="m 255.11719,379.84375 c 0,-6.26172 -6.34375,-11.33984 -14.17188,-11.33984 -7.82812,0 -14.17187,5.07812 -14.17187,11.33984 0,6.26172 6.34375,11.33594 14.17187,11.33594 7.82813,0 14.17188,-5.07422 14.17188,-11.33594"
         id="path14" />
      <path
         style="fill:none;stroke:#000000;stroke-width:2.26772;stroke-linecap:butt;stroke-linejoin:miter;stroke-miterlimit:10;stroke-opacity:1"
         d="m 255.11719,385.51172 c 0,-3.13281 -3.80469,-5.66797 -8.50391,-5.66797 -4.69531,0 -8.50391,2.53516 -8.50391,5.66797 0,3.13281 3.8086,5.66797 8.50391,5.66797 4.69922,0 8.50391,-2.53516 8.50391,-5.66797"
         id="path16" />
    </g>
  </g>
</svg>
